<svg xmlns="http://www.w3.org/2000/svg" width="19" height="19" viewBox="0 0 19 19" fill="none">
  <path
    d="M5.91724 2.31035H12.2897C14.7172 2.31035 16.6897 4.28276 16.6897 6.71035V13.0828C16.6897 14.2497 16.2261 15.3689 15.4009 16.194C14.5758 17.0192 13.4566 17.4828 12.2897 17.4828H5.91724C3.48966 17.4828 1.51724 15.5103 1.51724 13.0828V6.71035C1.51724 5.5434 1.98081 4.42424 2.80597 3.59908C3.63113 2.77392 4.75029 2.31035 5.91724 2.31035ZM5.76552 3.82759C5.0412 3.82759 4.34655 4.11532 3.83439 4.62749C3.32222 5.13966 3.03448 5.83431 3.03448 6.55862V13.2345C3.03448 14.7441 4.25586 15.9655 5.76552 15.9655H12.4414C13.1657 15.9655 13.8603 15.6778 14.3725 15.1656C14.8847 14.6535 15.1724 13.9588 15.1724 13.2345V6.55862C15.1724 5.04897 13.951 3.82759 12.4414 3.82759H5.76552ZM13.0862 4.96552C13.3377 4.96552 13.5789 5.06543 13.7567 5.24326C13.9346 5.4211 14.0345 5.6623 14.0345 5.9138C14.0345 6.1653 13.9346 6.40649 13.7567 6.58433C13.5789 6.76217 13.3377 6.86207 13.0862 6.86207C12.8347 6.86207 12.5935 6.76217 12.4157 6.58433C12.2378 6.40649 12.1379 6.1653 12.1379 5.9138C12.1379 5.6623 12.2378 5.4211 12.4157 5.24326C12.5935 5.06543 12.8347 4.96552 13.0862 4.96552ZM9.10345 6.10345C10.1094 6.10345 11.0742 6.50308 11.7856 7.21443C12.4969 7.92577 12.8966 8.89056 12.8966 9.89656C12.8966 10.9025 12.4969 11.8673 11.7856 12.5787C11.0742 13.29 10.1094 13.6897 9.10345 13.6897C8.09746 13.6897 7.13267 13.29 6.42132 12.5787C5.70998 11.8673 5.31035 10.9025 5.31035 9.89656C5.31035 8.89056 5.70998 7.92577 6.42132 7.21443C7.13267 6.50308 8.09746 6.10345 9.10345 6.10345ZM9.10345 7.62069C8.49985 7.62069 7.92098 7.86047 7.49417 8.28728C7.06736 8.71408 6.82759 9.29296 6.82759 9.89656C6.82759 10.5002 7.06736 11.079 7.49417 11.5058C7.92098 11.9326 8.49985 12.1724 9.10345 12.1724C9.70705 12.1724 10.2859 11.9326 10.7127 11.5058C11.1395 11.079 11.3793 10.5002 11.3793 9.89656C11.3793 9.29296 11.1395 8.71408 10.7127 8.28728C10.2859 7.86047 9.70705 7.62069 9.10345 7.62069Z"
    fill="white" fill-oopacity="0.8" />
</svg>